<svg width="128" height="135" viewBox="0 0 128 135" fill="none" xmlns="http://www.w3.org/2000/svg">
<path d="M60.7335 104.743C60.5628 102.939 60.1787 101.24 60.5414 99.7325C67.0062 72.2366 93.4629 54.4015 121.52 58.5206C127.451 59.3911 128.603 60.5589 127.75 66.4827C124.763 87.0144 114.479 102.217 94.679 110.179C91.2012 111.58 87.5529 112.536 84.1178 114.001C80.7894 115.423 77.4395 116.952 74.4098 118.927C70.484 121.496 68.137 125.254 68.0303 130.116C67.9663 132.77 67.1129 134.978 64.0192 134.999C60.9255 135.042 59.9013 132.834 59.9013 130.201C59.88 124.447 56.6369 120.689 52.135 117.865C49.596 116.273 46.7584 115.126 43.9634 114.001C39.6109 112.26 35.0662 110.986 30.799 109.075C12.7274 100.985 3.57441 86.3349 0.224658 67.4806C0.0112982 66.2704 0.096564 64.9964 0.01122 63.7437C-0.138132 60.9835 1.20605 59.5397 3.89438 59.0301C21.4752 55.6542 36.9865 60.0068 50.4282 71.536C52.7965 73.5743 53.906 73.2983 55.9329 71.3661C64.4886 63.1704 71.6362 54.1255 74.3886 42.3203C77.1196 30.5576 74.4951 20.1538 66.2808 11.13C64.4886 9.17664 63.3365 9.32528 61.5656 11.1725C51.5164 21.6825 49.6174 37.5855 57.085 50.0489C57.405 50.5797 57.7678 51.0893 58.0878 51.6201C59.6454 54.2317 59.3253 56.7158 57.149 57.8624C54.6527 59.1788 52.8392 58.1809 51.3244 55.9939C39.3975 38.6684 43.5794 13.9539 60.4988 1.34191C63.1871 -0.653925 65.278 -0.314209 67.753 1.63917C82.7735 13.508 87.5315 33.2753 79.7226 52.0447C74.6019 64.3807 65.8542 73.8715 55.5916 82.1521C53.1593 84.1267 51.0043 83.3624 49.02 81.2179C42.4059 74.0626 34.4262 69.0943 24.8463 67.1409C20.4085 66.2279 15.7572 66.2916 11.1913 65.9519C8.54559 65.7608 8.03361 67.0347 8.60968 69.434C12.5782 85.6555 21.5606 97.5456 37.7546 103.321C39.1201 103.809 40.5069 104.276 41.8724 104.807C45.8409 106.357 50.0229 107.546 53.714 109.584C57.3838 111.601 60.5842 114.468 64.382 117.249C70.7188 109.075 80.7253 106.675 90.1985 103.278C106.115 97.5668 115.119 85.8678 119.045 69.9011C119.898 66.4615 119.557 66.1217 116.079 65.9306C94.039 64.6992 74.3459 78.9248 68.6278 100.2C68.3931 101.113 68.1797 102.004 67.9023 102.896C66.7075 106.675 64.0193 107.419 60.6482 104.701L60.7335 104.743Z" fill="black"/>
</svg>
