<svg width="92" height="106" viewBox="0 0 92 106" fill="none" xmlns="http://www.w3.org/2000/svg">
<path d="M72.9898 16.6067C68.9799 12.0105 66.7698 6.10913 66.7704 0H48.6403V73.0222C48.5034 76.9748 46.8421 80.7194 44.0069 83.4661C41.1717 86.2129 37.3844 87.7468 33.4439 87.7444C25.1122 87.7444 18.1888 80.9133 18.1888 72.4333C18.1888 62.3044 27.9286 54.7078 37.9617 57.8289V39.22C17.7194 36.5111 0 52.2933 0 72.4333C0 92.0433 16.1939 106 33.3852 106C51.8087 106 66.7704 90.9833 66.7704 72.4333V35.3922C74.1222 40.6913 82.9488 43.5345 92 43.5189V25.3222C92 25.3222 80.9694 25.8522 72.9898 16.6067Z" fill="white"/>
</svg>
