<svg width="49" height="58" viewBox="0 0 49 58" fill="none" xmlns="http://www.w3.org/2000/svg">
<path d="M24.5 0C20.7096 0 17.0745 1.52767 14.3943 4.24695C11.7141 6.96623 10.2083 10.6544 10.2083 14.5C10.2083 18.3456 11.7141 22.0338 14.3943 24.753C17.0745 27.4723 20.7096 29 24.5 29C28.2904 29 31.9255 27.4723 34.6057 24.753C37.2859 22.0338 38.7917 18.3456 38.7917 14.5C38.7917 10.6544 37.2859 6.96623 34.6057 4.24695C31.9255 1.52767 28.2904 0 24.5 0ZM12.25 14.5C12.25 11.2037 13.5406 8.04248 15.8379 5.71167C18.1353 3.38086 21.2511 2.07143 24.5 2.07143C27.7489 2.07143 30.8647 3.38086 33.1621 5.71167C35.4594 8.04248 36.75 11.2037 36.75 14.5C36.75 17.7963 35.4594 20.9575 33.1621 23.2883C30.8647 25.6191 27.7489 26.9286 24.5 26.9286C21.2511 26.9286 18.1353 25.6191 15.8379 23.2883C13.5406 20.9575 12.25 17.7963 12.25 14.5ZM7.14583 33.1429C5.25064 33.1429 3.43307 33.9067 2.09297 35.2663C0.752863 36.626 0 38.47 0 40.3929V41.7745C0 46.2281 5.64725 58 24.5 58C43.3528 58 49 46.226 49 41.7745V40.3929C49 38.47 48.2471 36.626 46.907 35.2663C45.5669 33.9067 43.7494 33.1429 41.8542 33.1429H7.14583ZM2.04167 40.3929C2.04167 39.0194 2.57943 37.7022 3.53664 36.7311C4.49386 35.7599 5.79212 35.2143 7.14583 35.2143H41.8542C43.2079 35.2143 44.5061 35.7599 45.4634 36.7311C46.4206 37.7022 46.9583 39.0194 46.9583 40.3929V41.7745C46.9583 44.9169 42.3952 55.9286 24.5 55.9286C6.60479 55.9286 2.04167 44.9169 2.04167 41.7745V40.3929Z" fill="black"/>
</svg>
