<svg width="115" height="119" viewBox="0 0 115 119" fill="none" xmlns="http://www.w3.org/2000/svg">
<path d="M112.7 32.0385C104.773 32.0294 97.1729 28.8921 91.5676 23.3149C85.9622 17.7376 82.8091 10.1759 82.8 2.28846C82.8 1.68152 82.5577 1.09945 82.1263 0.670275C81.695 0.241106 81.11 0 80.5 0H57.5C56.89 0 56.305 0.241106 55.8737 0.670275C55.4423 1.09945 55.2 1.68152 55.2 2.28846V77.8077C55.1997 80.265 54.5366 82.6772 53.2799 84.7926C52.0233 86.908 50.2191 88.6491 48.0556 89.8342C45.8921 91.0194 43.4486 91.6051 40.98 91.5303C38.5115 91.4555 36.1083 90.723 34.0213 89.4091C31.9343 88.0952 30.2399 86.2481 29.1149 84.0605C27.9899 81.873 27.4755 79.4251 27.6255 76.9723C27.7754 74.5196 28.5841 72.1518 29.9673 70.116C31.3504 68.0802 33.2573 66.4511 35.489 65.3985C35.8822 65.2122 36.2141 64.9187 36.4462 64.552C36.6782 64.1854 36.8009 63.7607 36.8 63.3275V38.9038C36.8001 38.5693 36.7266 38.2388 36.5845 37.9357C36.4424 37.6325 36.2352 37.364 35.9776 37.1491C35.7199 36.9342 35.4181 36.7781 35.0932 36.6918C34.7684 36.6055 34.4285 36.5912 34.0975 36.6497C14.6568 40.0938 0 57.7837 0 77.8077C0 88.7326 4.36177 99.21 12.1258 106.935C19.8898 114.66 30.42 119 41.4 119C52.38 119 62.9102 114.66 70.6742 106.935C78.4382 99.21 82.8 88.7326 82.8 77.8077V51.17C91.8015 56.6426 102.151 59.526 112.7 59.5C113.31 59.5 113.895 59.2589 114.326 58.8297C114.758 58.4006 115 57.8185 115 57.2115V34.3269C115 33.72 114.758 33.1379 114.326 32.7087C113.895 32.2796 113.31 32.0385 112.7 32.0385ZM110.4 54.8773C100.119 54.456 90.1899 51.0381 81.8455 45.0484C81.5014 44.8014 81.0953 44.654 80.6723 44.6223C80.2492 44.5907 79.8255 44.6761 79.4482 44.8692C79.0709 45.0622 78.7546 45.3554 78.5343 45.7161C78.314 46.0769 78.1983 46.4913 78.2 46.9135V77.8077C78.2 87.5187 74.3229 96.832 67.4215 103.699C60.5202 110.565 51.16 114.423 41.4 114.423C31.64 114.423 22.2798 110.565 15.3785 103.699C8.47713 96.832 4.6 87.5187 4.6 77.8077C4.6 60.9188 16.284 45.8894 32.2 41.7644V61.9658C29.4024 63.5729 27.0793 65.8846 25.4643 68.6683C23.8494 71.4521 22.9994 74.6098 23 77.824C23.0006 81.0382 23.8516 84.1957 25.4676 86.9788C27.0836 89.762 29.4075 92.0728 32.2057 93.6789C35.0039 95.285 38.1778 96.1299 41.4082 96.1284C44.6386 96.127 47.8118 95.2794 50.6085 93.6708C53.4053 92.0622 55.7271 89.7493 57.3406 86.9647C58.9541 84.1801 59.8023 81.0219 59.8 77.8077V4.57692H78.2748C78.8444 12.8675 82.4119 20.6725 88.3176 26.5485C94.2233 32.4246 102.068 35.9742 110.4 36.541V54.8773Z" fill="black"/>
</svg>
