<svg width="92" height="106" viewBox="0 0 92 106" fill="none" xmlns="http://www.w3.org/2000/svg">
<path d="M91.5 25.8269C91.1723 25.8231 90.7002 25.8071 90.111 25.7589C88.9273 25.6621 87.2681 25.435 85.3558 24.9139C81.5311 23.8718 76.6822 21.6499 72.6116 16.9338C68.6326 12.3722 66.3918 6.55044 66.2752 0.5H49.1403V73.0222V73.0309L49.14 73.0395C48.9986 77.1211 47.2831 80.9884 44.3548 83.8253C41.4265 86.6622 37.5143 88.2469 33.4436 88.2444M91.5 25.8269L33.4439 87.7444M91.5 25.8269V43.0168M91.5 25.8269V43.0168M33.4436 88.2444L33.4439 87.7444M33.4436 88.2444C33.4437 88.2444 33.4438 88.2444 33.4439 88.2444V87.7444M33.4436 88.2444C24.8367 88.2443 17.6888 81.1901 17.6888 72.4333C17.6888 62.1972 27.3289 54.4557 37.4617 57.164M33.4439 87.7444C25.1122 87.7444 18.1888 80.9133 18.1888 72.4333C18.1888 62.4728 27.6075 54.961 37.4617 57.6821V57.164M37.4617 57.164C37.6283 57.2085 37.795 57.2558 37.9617 57.306V57.8289V39.22M37.4617 57.164V39.6604M37.4617 39.6604C37.6062 39.6778 37.7507 39.6962 37.8954 39.7156L37.9617 39.22M37.4617 39.6604V39.22H37.9617M37.4617 39.6604C17.7032 37.273 0.5 52.737 0.5 72.4333C0.5 91.7475 16.4499 105.5 33.3852 105.5C51.5302 105.5 66.2704 90.7095 66.2704 72.4333V35.3922V34.4155L67.0628 34.9866C74.1941 40.1268 82.7292 42.9289 91.5 43.0168M37.9617 39.22C17.7194 36.5111 0 52.2933 0 72.4333C0 92.0433 16.1939 106 33.3852 106C51.8087 106 66.7704 90.9833 66.7704 72.4333V36.0067C66.6727 35.9375 66.5752 35.8679 66.478 35.7978L66.7704 35.3922H67.2704V35.7472C74.3841 40.7226 82.8282 43.4309 91.5 43.5168V43.0168M91.8519 43.5189C91.9013 43.519 91.9506 43.519 92 43.5189H91.8519Z" fill="black" stroke="black"/>
</svg>
