<svg width="122" height="98" viewBox="0 0 122 98" fill="none" xmlns="http://www.w3.org/2000/svg">
<mask id="path-1-inside-1_630_4" fill="white">
<path d="M78.0312 41.4969L55.6564 28.5609C54.3427 27.8014 52.8532 27.4023 51.3373 27.4034C49.8215 27.4045 48.3326 27.8059 47.02 28.5673C45.7074 29.3286 44.6173 30.4232 43.8591 31.7412C43.1008 33.0592 42.7011 34.5542 42.7 36.0763V61.936C42.6817 65.0353 44.3287 67.9018 47.0066 69.433C48.3195 70.2031 49.8123 70.61 51.3329 70.6121C52.8535 70.6143 54.3474 70.2117 55.6625 69.4453L78.0312 56.5093C79.3452 55.7507 80.4368 54.6577 81.1959 53.3404C81.955 52.0231 82.3547 50.528 82.3547 49.0061C82.3547 47.4842 81.955 45.9892 81.1959 44.6719C80.4368 43.3546 79.3452 42.2615 78.0312 41.503M74.9812 51.1927L52.6186 64.1349C52.2319 64.3657 51.7905 64.4875 51.3406 64.4875C50.8908 64.4875 50.4494 64.3657 50.0627 64.1349C49.6749 63.913 49.3532 63.5909 49.1312 63.2021C48.9092 62.8133 48.7948 62.3719 48.8 61.9237V36.0763C48.797 35.6302 48.9124 35.1913 49.1343 34.8048C49.3562 34.4184 49.6767 34.0982 50.0627 33.8774C50.4464 33.6413 50.8876 33.5163 51.3376 33.5163C51.7876 33.5163 52.2288 33.6413 52.6125 33.8774L74.9812 46.8195C75.367 47.0383 75.6879 47.356 75.9113 47.7402C76.1346 48.1244 76.2523 48.5613 76.2523 49.0061C76.2523 49.451 76.1346 49.8879 75.9113 50.2721C75.6879 50.6563 75.367 50.974 74.9812 51.1927ZM103.7 0H18.3C13.448 0.00486457 8.79616 1.94236 5.3653 5.38728C1.93443 8.83221 0.00484471 13.5031 0 18.375V79.625C0.00484471 84.4969 1.93443 89.1678 5.3653 92.6127C8.79616 96.0576 13.448 97.9951 18.3 98H103.7C108.552 97.9951 113.204 96.0576 116.635 92.6127C120.066 89.1678 121.995 84.4969 122 79.625V18.375C121.995 13.5031 120.066 8.83221 116.635 5.38728C113.204 1.94236 108.552 0.00486457 103.7 0ZM115.9 79.625C115.895 82.8724 114.608 85.9854 112.321 88.2817C110.034 90.578 106.934 91.8701 103.7 91.875H18.3C15.0658 91.8701 11.9655 90.578 9.67864 88.2817C7.39175 85.9854 6.10484 82.8724 6.1 79.625V18.375C6.10484 15.1276 7.39175 12.0146 9.67864 9.71831C11.9655 7.42204 15.0658 6.12986 18.3 6.125H103.7C106.934 6.12986 110.034 7.42204 112.321 9.71831C114.608 12.0146 115.895 15.1276 115.9 18.375V79.625Z"/>
</mask>
<path d="M78.0312 41.4969L55.6564 28.5609C54.3427 27.8014 52.8532 27.4023 51.3373 27.4034C49.8215 27.4045 48.3326 27.8059 47.02 28.5673C45.7074 29.3286 44.6173 30.4232 43.8591 31.7412C43.1008 33.0592 42.7011 34.5542 42.7 36.0763V61.936C42.6817 65.0353 44.3287 67.9018 47.0066 69.433C48.3195 70.2031 49.8123 70.61 51.3329 70.6121C52.8535 70.6143 54.3474 70.2117 55.6625 69.4453L78.0312 56.5093C79.3452 55.7507 80.4368 54.6577 81.1959 53.3404C81.955 52.0231 82.3547 50.528 82.3547 49.0061C82.3547 47.4842 81.955 45.9892 81.1959 44.6719C80.4368 43.3546 79.3452 42.2615 78.0312 41.503M74.9812 51.1927L52.6186 64.1349C52.2319 64.3657 51.7905 64.4875 51.3406 64.4875C50.8908 64.4875 50.4494 64.3657 50.0627 64.1349C49.6749 63.913 49.3532 63.5909 49.1312 63.2021C48.9092 62.8133 48.7948 62.3719 48.8 61.9237V36.0763C48.797 35.6302 48.9124 35.1913 49.1343 34.8048C49.3562 34.4184 49.6767 34.0982 50.0627 33.8774C50.4464 33.6413 50.8876 33.5163 51.3376 33.5163C51.7876 33.5163 52.2288 33.6413 52.6125 33.8774L74.9812 46.8195C75.367 47.0383 75.6879 47.356 75.9113 47.7402C76.1346 48.1244 76.2523 48.5613 76.2523 49.0061C76.2523 49.451 76.1346 49.8879 75.9113 50.2721C75.6879 50.6563 75.367 50.974 74.9812 51.1927ZM103.7 0H18.3C13.448 0.00486457 8.79616 1.94236 5.3653 5.38728C1.93443 8.83221 0.00484471 13.5031 0 18.375V79.625C0.00484471 84.4969 1.93443 89.1678 5.3653 92.6127C8.79616 96.0576 13.448 97.9951 18.3 98H103.7C108.552 97.9951 113.204 96.0576 116.635 92.6127C120.066 89.1678 121.995 84.4969 122 79.625V18.375C121.995 13.5031 120.066 8.83221 116.635 5.38728C113.204 1.94236 108.552 0.00486457 103.7 0ZM115.9 79.625C115.895 82.8724 114.608 85.9854 112.321 88.2817C110.034 90.578 106.934 91.8701 103.7 91.875H18.3C15.0658 91.8701 11.9655 90.578 9.67864 88.2817C7.39175 85.9854 6.10484 82.8724 6.1 79.625V18.375C6.10484 15.1276 7.39175 12.0146 9.67864 9.71831C11.9655 7.42204 15.0658 6.12986 18.3 6.125H103.7C106.934 6.12986 110.034 7.42204 112.321 9.71831C114.608 12.0146 115.895 15.1276 115.9 18.375V79.625Z" fill="black"/>
<path d="M55.6564 28.5609L56.1569 27.6952L56.1569 27.6951L55.6564 28.5609ZM42.7 36.0763L41.7 36.0755V36.0763H42.7ZM42.7 61.936L43.7 61.9419V61.936H42.7ZM47.0066 69.433L47.5126 68.5704L47.503 68.5649L47.0066 69.433ZM55.6625 69.4453L55.1619 68.5796L55.159 68.5813L55.6625 69.4453ZM78.0312 56.5093L77.5313 55.6432L77.5306 55.6436L78.0312 56.5093ZM74.9812 51.1927L74.4879 50.3228L74.4803 50.3272L74.9812 51.1927ZM52.6186 64.1349L52.1177 63.2693L52.1061 63.2762L52.6186 64.1349ZM50.0627 64.1349L50.5752 63.2762L50.5673 63.2715L50.5593 63.2669L50.0627 64.1349ZM48.8 61.9237L49.8 61.9353V61.9237H48.8ZM48.8 36.0763H49.8L49.8 36.0695L48.8 36.0763ZM50.0627 33.8774L50.5593 34.7453L50.5732 34.7374L50.5868 34.7291L50.0627 33.8774ZM51.3376 33.5163V32.5163V33.5163ZM52.6125 33.8774L52.0884 34.7291L52.1 34.7362L52.1117 34.7429L52.6125 33.8774ZM74.9812 46.8195L74.4804 47.6851L74.4879 47.6894L74.9812 46.8195ZM103.7 0L103.701 -1H103.7V0ZM18.3 0V-1L18.299 -1L18.3 0ZM0 18.375L-1 18.374V18.375H0ZM0 79.625H-1L-1 79.626L0 79.625ZM18.3 98L18.299 99H18.3V98ZM103.7 98V99H103.701L103.7 98ZM122 79.625L123 79.626V79.625H122ZM122 18.375H123V18.374L122 18.375ZM115.9 79.625L116.9 79.6265V79.625H115.9ZM103.7 91.875V92.875H103.701L103.7 91.875ZM18.3 91.875L18.2985 92.875H18.3V91.875ZM6.1 79.625H5.1L5.1 79.6265L6.1 79.625ZM6.1 18.375L5.1 18.3735V18.375H6.1ZM18.3 6.125V5.125L18.2985 5.125L18.3 6.125ZM103.7 6.125L103.701 5.125H103.7V6.125ZM115.9 18.375H116.9L116.9 18.3735L115.9 18.375ZM78.5317 40.6311L56.1569 27.6952L55.1559 29.4266L77.5307 42.3626L78.5317 40.6311ZM56.1569 27.6951C54.691 26.8477 53.0286 26.4021 51.3366 26.4034L51.3381 28.4034C52.6778 28.4024 53.9944 28.7552 55.1559 29.4266L56.1569 27.6951ZM51.3366 26.4034C49.6446 26.4046 47.9829 26.8527 46.5182 27.7022L47.5217 29.4323C48.6823 28.7591 49.9984 28.4044 51.3381 28.4034L51.3366 26.4034ZM46.5182 27.7022C45.0536 28.5518 43.8378 29.7728 42.9923 31.2425L44.7258 32.2398C45.3968 31.0736 46.3612 30.1055 47.5217 29.4323L46.5182 27.7022ZM42.9923 31.2425C42.1468 32.7121 41.7012 34.3789 41.7 36.0755L43.7 36.077C43.701 34.7295 44.0549 33.4062 44.7258 32.2398L42.9923 31.2425ZM41.7 36.0763V61.936H43.7V36.0763H41.7ZM41.7 61.9301C41.6796 65.3882 43.5173 68.5897 46.5102 70.3011L47.503 68.5649C45.1401 67.2138 43.6838 64.6823 43.7 61.9419L41.7 61.9301ZM46.5007 70.2956C47.9664 71.1553 49.6333 71.6097 51.3315 71.6121L51.3343 69.6122C49.9913 69.6102 48.6727 69.2509 47.5126 68.5704L46.5007 70.2956ZM51.3315 71.6121C53.0296 71.6145 54.6978 71.1649 56.166 70.3092L55.159 68.5813C53.997 69.2584 52.6773 69.6141 51.3343 69.6122L51.3315 71.6121ZM56.1631 70.3109L78.5318 57.3749L77.5306 55.6436L55.1619 68.5796L56.1631 70.3109ZM78.5311 57.3753C79.9978 56.5287 81.2157 55.309 82.0624 53.8396L80.3295 52.8411C79.658 54.0064 78.6927 54.9728 77.5313 55.6432L78.5311 57.3753ZM82.0624 53.8396C82.909 52.3703 83.3547 50.7031 83.3547 49.0061H81.3547C81.3547 50.353 81.0009 51.6758 80.3295 52.8411L82.0624 53.8396ZM83.3547 49.0061C83.3547 47.3091 82.909 45.6419 82.0624 44.1726L80.3295 45.1711C81.0009 46.3365 81.3547 47.6593 81.3547 49.0061H83.3547ZM82.0624 44.1726C81.2157 42.7033 79.9978 41.4836 78.5311 40.6369L77.5313 42.3691C78.6927 43.0395 79.658 44.0059 80.3295 45.1711L82.0624 44.1726ZM74.4803 50.3272L52.1177 63.2694L53.1195 65.0004L75.4821 52.0583L74.4803 50.3272ZM52.1061 63.2762C51.8742 63.4146 51.6098 63.4875 51.3406 63.4875V65.4875C51.9711 65.4875 52.5897 65.3167 53.1311 64.9935L52.1061 63.2762ZM51.3406 63.4875C51.0715 63.4875 50.8071 63.4146 50.5752 63.2762L49.5502 64.9935C50.0916 65.3167 50.7102 65.4875 51.3406 65.4875V63.4875ZM50.5593 63.2669C50.3267 63.1338 50.1333 62.9404 49.9996 62.7062L48.2628 63.698C48.5732 64.2415 49.023 64.6922 49.5661 65.0029L50.5593 63.2669ZM49.9996 62.7062C49.8658 62.472 49.7968 62.2058 49.7999 61.9353L47.8001 61.9122C47.7928 62.538 47.9525 63.1546 48.2628 63.698L49.9996 62.7062ZM49.8 61.9237V36.0763H47.8V61.9237H49.8ZM49.8 36.0695C49.7982 35.8002 49.8678 35.5356 50.0015 35.3028L48.2671 34.3069C47.9569 34.847 47.7958 35.4601 47.8 36.083L49.8 36.0695ZM50.0015 35.3028C50.1352 35.0701 50.3278 34.8778 50.5593 34.7453L49.5661 33.0094C49.0255 33.3187 48.5773 33.7667 48.2671 34.3069L50.0015 35.3028ZM50.5868 34.7291C50.813 34.5898 51.0729 34.5163 51.3376 34.5163V32.5163C50.7023 32.5163 50.0797 32.6927 49.5386 33.0257L50.5868 34.7291ZM51.3376 34.5163C51.6023 34.5163 51.8622 34.5898 52.0884 34.7291L53.1366 33.0257C52.5955 32.6928 51.9729 32.5163 51.3376 32.5163V34.5163ZM52.1117 34.7429L74.4804 47.6851L75.482 45.9539L53.1133 33.0118L52.1117 34.7429ZM74.4879 47.6894C74.7192 47.8206 74.9122 48.0114 75.0467 48.2428L76.7758 47.2376C76.4636 46.7006 76.0147 46.256 75.4745 45.9496L74.4879 47.6894ZM75.0467 48.2428C75.1813 48.4742 75.2523 48.7376 75.2523 49.0061H77.2523C77.2523 48.3849 77.088 47.7746 76.7758 47.2376L75.0467 48.2428ZM75.2523 49.0061C75.2523 49.2746 75.1813 49.5381 75.0467 49.7695L76.7758 50.7746C77.088 50.2376 77.2523 49.6273 77.2523 49.0061H75.2523ZM75.0467 49.7695C74.9122 50.0009 74.7192 50.1917 74.4879 50.3229L75.4745 52.0626C76.0147 51.7563 76.4636 51.3116 76.7758 50.7746L75.0467 49.7695ZM103.7 -1H18.3V1H103.7V-1ZM18.299 -1C13.1808 -0.994868 8.27459 1.04896 4.65675 4.68163L6.07385 6.09294C9.31774 2.83576 13.7152 1.0046 18.301 1L18.299 -1ZM4.65675 4.68163C1.03904 8.31416 -0.994893 13.2386 -1 18.374L1 18.376C1.00458 13.7677 2.82982 9.35027 6.07385 6.09294L4.65675 4.68163ZM-1 18.375V79.625H1V18.375H-1ZM-1 79.626C-0.994893 84.7614 1.03904 89.6858 4.65675 93.3184L6.07385 91.9071C2.82982 88.6497 1.00458 84.2323 1 79.624L-1 79.626ZM4.65675 93.3184C8.27459 96.951 13.1808 98.9949 18.299 99L18.301 97C13.7152 96.9954 9.31774 95.1642 6.07385 91.9071L4.65675 93.3184ZM18.3 99H103.7V97H18.3V99ZM103.701 99C108.819 98.9949 113.725 96.951 117.343 93.3184L115.926 91.9071C112.682 95.1642 108.285 96.9954 103.699 97L103.701 99ZM117.343 93.3184C120.961 89.6858 122.995 84.7614 123 79.626L121 79.624C120.995 84.2323 119.17 88.6497 115.926 91.9071L117.343 93.3184ZM123 79.625V18.375H121V79.625H123ZM123 18.374C122.995 13.2386 120.961 8.31416 117.343 4.68163L115.926 6.09294C119.17 9.35027 120.995 13.7677 121 18.376L123 18.374ZM117.343 4.68163C113.725 1.04896 108.819 -0.994868 103.701 -1L103.699 1C108.285 1.0046 112.682 2.83576 115.926 6.09294L117.343 4.68163ZM114.9 79.6235C114.896 82.6075 113.713 85.4672 111.613 87.576L113.03 88.9874C115.504 86.5036 116.895 83.1373 116.9 79.6265L114.9 79.6235ZM111.613 87.576C109.513 89.6847 106.667 90.8705 103.698 90.875L103.701 92.875C107.202 92.8697 110.556 91.4712 113.03 88.9874L111.613 87.576ZM103.7 90.875H18.3V92.875H103.7V90.875ZM18.3015 90.875C15.3334 90.8705 12.4872 89.6847 10.3872 87.576L8.97009 88.9874C11.4438 91.4712 14.7983 92.8697 18.2985 92.875L18.3015 90.875ZM10.3872 87.576C8.28701 85.4672 7.10445 82.6075 7.1 79.6235L5.1 79.6265C5.10523 83.1373 6.49648 86.5036 8.97009 88.9874L10.3872 87.576ZM7.1 79.625V18.375H5.1V79.625H7.1ZM7.1 18.3765C7.10445 15.3925 8.28701 12.5328 10.3872 10.424L8.97009 9.01265C6.49648 11.4964 5.10523 14.8627 5.1 18.3735L7.1 18.3765ZM10.3872 10.424C12.4872 8.31532 15.3334 7.12946 18.3015 7.125L18.2985 5.125C14.7983 5.13026 11.4438 6.52876 8.97009 9.01265L10.3872 10.424ZM18.3 7.125H103.7V5.125H18.3V7.125ZM103.698 7.125C106.667 7.12946 109.513 8.31532 111.613 10.424L113.03 9.01265C110.556 6.52876 107.202 5.13026 103.701 5.125L103.698 7.125ZM111.613 10.424C113.713 12.5328 114.896 15.3925 114.9 18.3765L116.9 18.3735C116.895 14.8627 115.504 11.4964 113.03 9.01265L111.613 10.424ZM114.9 18.375V79.625H116.9V18.375H114.9Z" fill="black" mask="url(#path-1-inside-1_630_4)"/>
</svg>
