<svg width="55" height="55" viewBox="0 0 55 55" fill="none" xmlns="http://www.w3.org/2000/svg">
<path d="M54.7531 10.9565C54.6539 10.8374 54.5298 10.7416 54.3896 10.6759C54.2493 10.6101 54.0963 10.5759 53.9413 10.5758H10.4022L8.6359 0.867212C8.59139 0.623996 8.46306 0.404062 8.27322 0.245631C8.08337 0.0872004 7.84401 0.00028848 7.59674 0H1.05767C0.777161 0 0.508138 0.111423 0.309786 0.309757C0.111433 0.508091 0 0.777089 0 1.05758C0 1.33806 0.111433 1.60706 0.309786 1.80539C0.508138 2.00373 0.777161 2.11515 1.05767 2.11515H6.71358L8.48254 11.8448L13.6149 40.0768C13.8515 41.367 14.5593 42.5233 15.6007 43.3209C14.5097 44.0241 13.6605 45.0448 13.1677 46.2455C12.675 47.4462 12.5622 48.7691 12.8448 50.0359C13.1273 51.3026 13.7916 52.4522 14.7479 53.3298C15.7043 54.2073 16.9067 54.7705 18.1931 54.9434C19.4795 55.1163 20.7881 54.8907 21.9422 54.2968C23.0964 53.703 24.0407 52.7696 24.6478 51.6224C25.2549 50.4753 25.4956 49.1696 25.3374 47.8814C25.1792 46.5932 24.6298 45.3844 23.7633 44.4182H39.6971C38.7283 45.5013 38.1606 46.884 38.0889 48.3353C38.0172 49.7867 38.4458 51.2187 39.3031 52.392C40.1605 53.5653 41.3946 54.4088 42.7992 54.7816C44.2038 55.1543 45.6938 55.0338 47.0202 54.44C48.3466 53.8463 49.429 52.8154 50.0865 51.5195C50.744 50.2236 50.9368 48.7414 50.6327 47.3204C50.3285 45.8995 49.5459 44.626 48.4155 43.7128C47.2851 42.7995 45.8755 42.3019 44.4223 42.303H18.8186C18.076 42.3027 17.357 42.0418 16.7868 41.566C16.2167 41.0901 15.8316 40.4293 15.6985 39.6987L14.6408 33.8424H46.5641C47.8026 33.8426 49.0019 33.4081 49.9528 32.6148C50.9038 31.8214 51.5461 30.7195 51.7678 29.5011L54.9831 11.8237C55.0107 11.6711 55.0044 11.5143 54.9646 11.3645C54.9249 11.2146 54.8527 11.0753 54.7531 10.9565ZM23.2688 48.6485C23.2688 49.4851 23.0207 50.303 22.5558 50.9987C22.0909 51.6944 21.4302 52.2366 20.6571 52.5568C19.8841 52.8769 19.0334 52.9607 18.2128 52.7975C17.3921 52.6343 16.6382 52.2314 16.0466 51.6397C15.4549 51.0481 15.052 50.2944 14.8887 49.4738C14.7255 48.6532 14.8093 47.8026 15.1295 47.0296C15.4497 46.2566 15.9919 45.5959 16.6877 45.1311C17.3834 44.6663 18.2014 44.4182 19.0381 44.4182C20.1602 44.4182 21.2363 44.8639 22.0297 45.6572C22.8231 46.4505 23.2688 47.5265 23.2688 48.6485ZM48.653 48.6485C48.653 49.4851 48.4048 50.303 47.94 50.9987C47.4751 51.6944 46.8144 52.2366 46.0413 52.5568C45.2682 52.8769 44.4176 52.9607 43.5969 52.7975C42.7762 52.6343 42.0224 52.2314 41.4307 51.6397C40.8391 51.0481 40.4361 50.2944 40.2729 49.4738C40.1096 48.6532 40.1934 47.8026 40.5136 47.0296C40.8338 46.2566 41.3761 45.5959 42.0718 45.1311C42.7676 44.6663 43.5855 44.4182 44.4223 44.4182C45.5443 44.4182 46.6204 44.8639 47.4138 45.6572C48.2072 46.4505 48.653 47.5265 48.653 48.6485ZM49.6868 29.123C49.5537 29.854 49.1682 30.5151 48.5975 30.991C48.0268 31.467 47.3072 31.7275 46.5641 31.7273H14.2469L10.7856 12.6909H52.6748L49.6868 29.123Z" fill="black"/>
</svg>
