<svg width="108" height="108" viewBox="0 0 108 108" fill="none" xmlns="http://www.w3.org/2000/svg">
<path d="M79 25.4286H86.1429M32.5714 4H75.4286C83.0062 4 90.2734 7.0102 95.6316 12.3684C100.99 17.7266 104 24.9938 104 32.5714V75.4286C104 83.0062 100.99 90.2734 95.6316 95.6316C90.2734 100.99 83.0062 104 75.4286 104H32.5714C24.9938 104 17.7266 100.99 12.3684 95.6316C7.0102 90.2734 4 83.0062 4 75.4286V32.5714C4 24.9938 7.0102 17.7266 12.3684 12.3684C17.7266 7.0102 24.9938 4 32.5714 4ZM54 75.4286C48.3168 75.4286 42.8663 73.1709 38.8477 69.1523C34.8291 65.1337 32.5714 59.6832 32.5714 54C32.5714 48.3168 34.8291 42.8663 38.8477 38.8477C42.8663 34.8291 48.3168 32.5714 54 32.5714C59.6832 32.5714 65.1337 34.8291 69.1523 38.8477C73.1709 42.8663 75.4286 48.3168 75.4286 54C75.4286 59.6832 73.1709 65.1337 69.1523 69.1523C65.1337 73.1709 59.6832 75.4286 54 75.4286Z" stroke="white" stroke-width="7"/>
</svg>
