<svg width="220" height="77" viewBox="0 0 220 77" fill="none" xmlns="http://www.w3.org/2000/svg">
<path d="M124.876 26.3996V62.7678H116.315V60.2717C113.228 62.2372 109.876 63.226 106.235 63.226C103.763 63.226 101.4 62.7557 99.1569 61.8272C96.9142 60.8987 94.8764 59.5361 93.0557 57.7756C91.2831 55.9548 89.9326 53.929 89.0042 51.674C88.0636 49.4312 87.6055 47.0677 87.6055 44.5837C87.6055 42.0997 88.0757 39.7362 89.0042 37.4572C89.9326 35.1902 91.2831 33.1644 93.0557 31.3918C94.8764 29.6192 96.9021 28.2687 99.1569 27.3402C101.4 26.4117 103.763 25.9414 106.235 25.9414C109.876 25.9414 113.228 26.9302 116.315 28.8957V26.3996H124.876ZM116.315 58.3665V30.7889C113.385 28.6184 110.021 27.5331 106.235 27.5331C103.208 27.5331 100.978 28.4857 99.5669 30.3789C98.1561 32.2721 97.3 34.3582 96.9865 36.6252C96.673 38.8921 96.5283 41.545 96.5283 44.5837C96.5283 47.6224 96.685 50.2632 96.9865 52.5422C97.2879 54.8213 98.144 56.8953 99.5669 58.7885C100.99 60.6817 103.208 61.6343 106.235 61.6343C110.021 61.6343 113.385 60.549 116.315 58.3785V58.3665Z" fill="#F4F4F4"/>
<path d="M130.797 12.9043H139.358V62.7537H130.797V12.9043Z" fill="#F4F4F4"/>
<path d="M180.488 45.3161C180.488 47.7881 180.017 50.1515 179.089 52.4065C178.148 54.6493 176.798 56.6872 175.038 58.508C173.265 60.2806 171.251 61.6311 168.972 62.5596C166.693 63.5002 164.33 63.9584 161.846 63.9584C159.362 63.9584 157.011 63.4881 154.768 62.5596C152.526 61.6311 150.488 60.2685 148.667 58.508C146.894 56.6872 145.544 54.6614 144.615 52.4065C143.675 50.1636 143.217 47.8002 143.217 45.3161C143.217 42.8321 143.687 40.4686 144.615 38.1896C145.544 35.9226 146.894 33.8968 148.667 32.1242C150.488 30.3516 152.513 29.0011 154.768 28.0726C157.011 27.1441 159.374 26.6738 161.846 26.6738C164.318 26.6738 166.693 27.1441 168.972 28.0726C171.239 29.0132 173.265 30.3637 175.038 32.1242C176.81 33.8968 178.161 35.9106 179.089 38.1896C180.017 40.4566 180.488 42.8321 180.488 45.3161ZM171.553 45.3161C171.553 42.2895 171.396 39.6366 171.095 37.3576C170.793 35.0785 169.937 33.0045 168.514 31.1113C167.103 29.2182 164.873 28.2655 161.846 28.2655C158.82 28.2655 156.589 29.2182 155.178 31.1113C153.767 33.0045 152.911 35.0906 152.598 37.3576C152.284 39.6246 152.14 42.2774 152.14 45.3161C152.14 48.3548 152.296 50.9956 152.598 53.2747C152.899 55.5537 153.755 57.6278 155.178 59.5209C156.601 61.4141 158.82 62.3667 161.846 62.3667C164.873 62.3667 167.103 61.4141 168.514 59.5209C169.925 57.6278 170.781 55.5416 171.095 53.2747C171.408 51.0077 171.553 48.3548 171.553 45.3161Z" fill="#F4F4F4"/>
<path d="M220.001 44.8087H192.798C192.798 47.5821 192.979 50.1143 193.329 52.3813C193.678 54.6483 194.583 56.6621 196.018 58.4105C197.452 60.159 199.611 61.0272 202.493 61.0272C205.374 61.0272 208.075 60.3399 210.596 58.9773C213.116 57.6147 215.166 55.7215 216.733 53.2978L218.096 54.2021C216.323 56.8309 214.068 58.8929 211.319 60.376C208.57 61.8713 205.628 62.6068 202.493 62.6068C200.021 62.6068 197.657 62.1366 195.415 61.2081C193.172 60.2796 191.134 58.917 189.313 57.1564C187.541 55.3356 186.19 53.3098 185.262 51.0549C184.321 48.812 183.863 46.4486 183.863 43.9645C183.863 41.4805 184.321 39.1171 185.226 36.838C186.13 34.559 187.42 32.5452 189.084 30.7727C190.857 29.0001 192.846 27.6495 195.065 26.721C197.284 25.7925 199.635 25.3223 202.107 25.3223C204.579 25.3223 206.918 25.7925 209.112 26.721C211.307 27.6616 213.236 29.0121 214.912 30.7727C216.528 32.5452 217.782 34.559 218.662 36.838C219.543 39.105 219.989 41.4805 219.989 43.9645V44.7966L220.001 44.8087ZM192.798 43.2169H211.054C211.006 40.3832 210.813 37.8871 210.487 35.7166C210.161 33.5461 209.33 31.5806 207.991 29.808C206.653 28.0354 204.615 27.0828 201.89 26.926C199.165 27.0828 197.127 28.0354 195.788 29.808C194.45 31.5806 193.618 33.5581 193.293 35.7528C192.967 37.9474 192.798 40.4435 192.798 43.2169Z" fill="#F4F4F4"/>
<path d="M34.3231 59.4865C34.2266 58.4616 34.0096 57.4969 34.2145 56.6407C37.8681 41.0251 52.8199 30.8961 68.676 33.2354C72.0281 33.7298 72.6792 34.393 72.1969 37.7573C70.5088 49.4178 64.6969 58.0516 53.5072 62.5735C51.5417 63.3693 49.4799 63.912 47.5386 64.744C45.6575 65.5519 43.7644 66.4201 42.0522 67.5415C39.8335 69.0006 38.5072 71.135 38.4469 73.8963C38.4107 75.4036 37.9284 76.6577 36.18 76.6697C34.4316 76.6939 33.8528 75.4398 33.8528 73.9446C33.8408 70.6767 32.008 68.5424 29.4637 66.9386C28.0289 66.0342 26.4252 65.3831 24.8456 64.744C22.3858 63.7552 19.8174 63.0317 17.4059 61.9464C7.19283 57.3522 2.02005 49.0319 0.126964 38.324C0.00638507 37.6367 0.0545724 36.9132 0.00634091 36.2018C-0.0780643 34.6342 0.681591 33.8142 2.20088 33.5248C12.1366 31.6075 20.9027 34.0795 28.4991 40.6272C29.8375 41.7848 30.4646 41.628 31.6101 40.5307C36.4453 35.8762 40.4847 30.7393 42.0402 24.0348C43.5836 17.3545 42.1004 11.4459 37.4581 6.32103C36.4453 5.21166 35.7942 5.29607 34.7934 6.34515C29.1141 12.3141 28.0409 21.3458 32.2612 28.4241C32.442 28.7255 32.6471 29.015 32.8279 29.3164C33.7082 30.7996 33.5273 32.2104 32.2974 32.8616C30.8866 33.6092 29.8617 33.0425 29.0056 31.8004C22.2653 21.9608 24.6286 7.9248 34.1905 0.762109C35.7098 -0.371381 36.8914 -0.178448 38.2901 0.930925C46.7789 7.67157 49.4678 18.898 45.0546 29.5576C42.1608 36.5635 37.217 41.9536 31.4172 46.6564C30.0426 47.7778 28.8247 47.3437 27.7033 46.1258C23.9654 42.0621 19.4557 39.2405 14.0417 38.1311C11.5337 37.6126 8.90505 37.6488 6.32466 37.4558C4.82948 37.3473 4.54014 38.0708 4.8657 39.4334C7.10847 48.646 12.1848 55.3987 21.3367 58.6786C22.1084 58.956 22.8922 59.2212 23.6639 59.5227C25.9067 60.403 28.2701 61.0782 30.3561 62.2358C32.43 63.3814 34.2387 65.0093 36.385 66.5889C39.9662 61.9464 45.6213 60.5838 50.975 58.6545C59.9702 55.4108 65.0587 48.7666 67.2773 39.6987C67.7596 37.7452 67.5667 37.5523 65.6012 37.4438C53.1455 36.7444 42.016 44.8235 38.7845 56.906C38.6519 57.4245 38.5313 57.931 38.3745 58.4375C37.6993 60.5838 36.18 61.0059 34.2749 59.4624L34.3231 59.4865Z" fill="#F4F4F4"/>
</svg>
