<svg width="73" height="77" viewBox="0 0 73 77" fill="none" xmlns="http://www.w3.org/2000/svg">
<path d="M34.3231 59.4865C34.2266 58.4616 34.0096 57.4969 34.2145 56.6407C37.8681 41.0251 52.8199 30.8961 68.676 33.2354C72.0281 33.7298 72.6792 34.393 72.1969 37.7573C70.5088 49.4178 64.6969 58.0516 53.5072 62.5735C51.5417 63.3693 49.4799 63.912 47.5386 64.744C45.6575 65.5519 43.7644 66.4201 42.0522 67.5415C39.8335 69.0006 38.5072 71.135 38.4469 73.8963C38.4107 75.4036 37.9284 76.6577 36.18 76.6697C34.4316 76.6939 33.8528 75.4398 33.8528 73.9446C33.8408 70.6767 32.008 68.5424 29.4637 66.9386C28.0289 66.0342 26.4252 65.3831 24.8456 64.744C22.3858 63.7552 19.8174 63.0317 17.4059 61.9464C7.19283 57.3522 2.02005 49.0319 0.126964 38.324C0.00638507 37.6367 0.0545724 36.9132 0.00634091 36.2018C-0.0780643 34.6342 0.681591 33.8142 2.20088 33.5248C12.1366 31.6075 20.9027 34.0795 28.4991 40.6272C29.8375 41.7848 30.4646 41.628 31.6101 40.5307C36.4453 35.8762 40.4847 30.7393 42.0402 24.0348C43.5836 17.3545 42.1004 11.4459 37.4581 6.32103C36.4453 5.21166 35.7942 5.29607 34.7934 6.34515C29.1141 12.3141 28.0409 21.3458 32.2612 28.4241C32.442 28.7255 32.6471 29.015 32.8279 29.3164C33.7082 30.7996 33.5273 32.2104 32.2974 32.8616C30.8866 33.6092 29.8617 33.0425 29.0056 31.8004C22.2653 21.9608 24.6286 7.9248 34.1905 0.762109C35.7098 -0.371381 36.8914 -0.178448 38.2901 0.930925C46.7789 7.67157 49.4678 18.898 45.0546 29.5576C42.1608 36.5635 37.217 41.9536 31.4172 46.6564C30.0426 47.7778 28.8247 47.3437 27.7033 46.1258C23.9654 42.0621 19.4557 39.2405 14.0417 38.1311C11.5337 37.6126 8.90505 37.6488 6.32466 37.4558C4.82948 37.3473 4.54014 38.0708 4.8657 39.4334C7.10847 48.646 12.1848 55.3987 21.3367 58.6786C22.1084 58.956 22.8922 59.2212 23.6639 59.5227C25.9067 60.403 28.2701 61.0782 30.3561 62.2358C32.43 63.3814 34.2387 65.0093 36.385 66.5889C39.9662 61.9464 45.6213 60.5838 50.975 58.6545C59.9702 55.4108 65.0587 48.7666 67.2773 39.6987C67.7596 37.7452 67.5667 37.5523 65.6013 37.4438C53.1455 36.7444 42.016 44.8235 38.7845 56.906C38.6519 57.4245 38.5313 57.931 38.3745 58.4374C37.6993 60.5838 36.18 61.0059 34.2749 59.4624L34.3231 59.4865Z" fill="#F4F4F4"/>
</svg>
