<svg width="220" height="77" viewBox="0 0 220 77" fill="none" xmlns="http://www.w3.org/2000/svg">
<path d="M124.875 26.3957V62.7639H116.314V60.2678C113.227 62.2333 109.875 63.2221 106.234 63.2221C103.762 63.2221 101.399 62.7518 99.156 61.8233C96.9132 60.8948 94.8754 59.5322 93.0547 57.7717C91.2822 55.9509 89.9316 53.9251 89.0032 51.6701C88.0627 49.4273 87.6045 47.0638 87.6045 44.5798C87.6045 42.0958 88.0747 39.7323 89.0032 37.4533C89.9316 35.1863 91.2822 33.1605 93.0547 31.3879C94.8754 29.6153 96.9011 28.2648 99.156 27.3363C101.399 26.4078 103.762 25.9375 106.234 25.9375C109.875 25.9375 113.227 26.9263 116.314 28.8918V26.3957H124.875ZM116.314 58.3625V30.785C113.384 28.6145 110.02 27.5292 106.234 27.5292C103.207 27.5292 100.977 28.4818 99.5659 30.375C98.1551 32.2682 97.299 34.3543 96.9855 36.6212C96.672 38.8882 96.5274 41.5411 96.5274 44.5798C96.5274 47.6185 96.684 50.2593 96.9855 52.5383C97.2869 54.8174 98.1431 56.8914 99.5659 58.7846C100.989 60.6778 103.207 61.6304 106.234 61.6304C110.02 61.6304 113.384 60.5451 116.314 58.3746V58.3625Z" fill="#14181A"/>
<path d="M130.796 12.9023H139.357V62.7518H130.796V12.9023Z" fill="#14181A"/>
<path d="M180.487 45.3142C180.487 47.7861 180.016 50.1496 179.088 52.4045C178.148 54.6474 176.797 56.6852 175.037 58.5061C173.264 60.2786 171.25 61.6292 168.971 62.5577C166.693 63.4982 164.329 63.9565 161.845 63.9565C159.361 63.9565 157.01 63.4862 154.767 62.5577C152.525 61.6292 150.487 60.2666 148.666 58.5061C146.893 56.6852 145.543 54.6594 144.615 52.4045C143.674 50.1616 143.216 47.7982 143.216 45.3142C143.216 42.8301 143.686 40.4667 144.615 38.1877C145.543 35.9207 146.893 33.8949 148.666 32.1223C150.487 30.3497 152.512 28.9992 154.767 28.0707C157.01 27.1422 159.373 26.6719 161.845 26.6719C164.317 26.6719 166.693 27.1422 168.971 28.0707C171.238 29.0112 173.264 30.3618 175.037 32.1223C176.809 33.8949 178.16 35.9086 179.088 38.1877C180.016 40.4546 180.487 42.8301 180.487 45.3142ZM171.552 45.3142C171.552 42.2875 171.395 39.6347 171.094 37.3556C170.792 35.0766 169.936 33.0025 168.513 31.1094C167.102 29.2162 164.872 28.2636 161.845 28.2636C158.819 28.2636 156.588 29.2162 155.177 31.1094C153.766 33.0025 152.91 35.0886 152.597 37.3556C152.283 39.6226 152.139 42.2755 152.139 45.3142C152.139 48.3529 152.295 50.9937 152.597 53.2727C152.898 55.5517 153.754 57.6258 155.177 59.519C156.6 61.4121 158.819 62.3648 161.845 62.3648C164.872 62.3648 167.102 61.4121 168.513 59.519C169.924 57.6258 170.78 55.5397 171.094 53.2727C171.407 51.0057 171.552 48.3529 171.552 45.3142Z" fill="#14181A"/>
<path d="M220 44.8067H192.797C192.797 47.5801 192.978 50.1124 193.328 52.3794C193.677 54.6464 194.582 56.6601 196.017 58.4086C197.451 60.157 199.61 61.0252 202.492 61.0252C205.374 61.0252 208.075 60.3379 210.595 58.9753C213.115 57.6127 215.165 55.7195 216.732 53.2958L218.095 54.2002C216.322 56.8289 214.067 58.8909 211.318 60.3741C208.569 61.8693 205.627 62.6049 202.492 62.6049C200.02 62.6049 197.656 62.1346 195.414 61.2061C193.171 60.2776 191.133 58.915 189.312 57.1545C187.54 55.3337 186.189 53.3079 185.261 51.0529C184.32 48.8101 183.862 46.4466 183.862 43.9626C183.862 41.4786 184.321 39.1151 185.225 36.8361C186.129 34.5571 187.419 32.5433 189.083 30.7707C190.856 28.9981 192.845 27.6476 195.064 26.7191C197.283 25.7906 199.634 25.3203 202.106 25.3203C204.578 25.3203 206.917 25.7906 209.112 26.7191C211.306 27.6596 213.235 29.0102 214.911 30.7707C216.527 32.5433 217.781 34.5571 218.661 36.8361C219.542 39.1031 219.988 41.4786 219.988 43.9626V44.7946L220 44.8067ZM192.797 43.215H211.053C211.005 40.3813 210.812 37.8852 210.486 35.7147C210.16 33.5441 209.329 31.5786 207.99 29.806C206.652 28.0335 204.614 27.0808 201.889 26.9241C199.164 27.0808 197.126 28.0335 195.787 29.806C194.449 31.5786 193.617 33.5562 193.292 35.7508C192.966 37.9455 192.797 40.4415 192.797 43.215Z" fill="#14181A"/>
<path d="M34.3231 59.4865C34.2266 58.4616 34.0096 57.4969 34.2145 56.6407C37.8681 41.0251 52.8199 30.8961 68.676 33.2354C72.0281 33.7298 72.6792 34.393 72.1969 37.7573C70.5088 49.4178 64.6969 58.0516 53.5072 62.5735C51.5417 63.3693 49.4799 63.912 47.5386 64.744C45.6575 65.5519 43.7644 66.4201 42.0522 67.5415C39.8335 69.0006 38.5072 71.135 38.4469 73.8963C38.4107 75.4036 37.9284 76.6577 36.18 76.6697C34.4316 76.6939 33.8528 75.4398 33.8528 73.9446C33.8408 70.6767 32.008 68.5424 29.4637 66.9386C28.0289 66.0342 26.4252 65.3831 24.8456 64.744C22.3858 63.7552 19.8174 63.0317 17.4059 61.9464C7.19283 57.3522 2.02005 49.0319 0.126964 38.324C0.00638507 37.6367 0.0545724 36.9132 0.00634091 36.2018C-0.0780643 34.6342 0.681591 33.8142 2.20088 33.5248C12.1366 31.6075 20.9027 34.0795 28.4991 40.6272C29.8375 41.7848 30.4646 41.628 31.6101 40.5307C36.4453 35.8762 40.4847 30.7393 42.0402 24.0348C43.5836 17.3545 42.1004 11.4459 37.4581 6.32103C36.4453 5.21166 35.7942 5.29607 34.7934 6.34515C29.1141 12.3141 28.0409 21.3458 32.2612 28.4241C32.442 28.7255 32.6471 29.015 32.8279 29.3164C33.7082 30.7996 33.5273 32.2104 32.2974 32.8616C30.8866 33.6092 29.8617 33.0425 29.0056 31.8004C22.2653 21.9608 24.6286 7.9248 34.1905 0.762109C35.7098 -0.371381 36.8914 -0.178448 38.2901 0.930925C46.7789 7.67157 49.4678 18.898 45.0546 29.5576C42.1608 36.5635 37.217 41.9536 31.4172 46.6564C30.0426 47.7778 28.8247 47.3437 27.7033 46.1258C23.9654 42.0621 19.4557 39.2405 14.0417 38.1311C11.5337 37.6126 8.90505 37.6488 6.32466 37.4558C4.82948 37.3473 4.54014 38.0708 4.8657 39.4334C7.10847 48.646 12.1848 55.3987 21.3367 58.6786C22.1084 58.956 22.8922 59.2212 23.6639 59.5227C25.9067 60.403 28.2701 61.0782 30.3561 62.2358C32.43 63.3814 34.2387 65.0093 36.385 66.5889C39.9662 61.9464 45.6213 60.5838 50.975 58.6545C59.9702 55.4108 65.0587 48.7666 67.2773 39.6987C67.7596 37.7452 67.5667 37.5523 65.6012 37.4438C53.1455 36.7444 42.016 44.8235 38.7845 56.906C38.6519 57.4245 38.5313 57.931 38.3745 58.4375C37.6993 60.5838 36.18 61.0059 34.2749 59.4624L34.3231 59.4865Z" fill="#14181A"/>
</svg>
