<svg width="49" height="50" viewBox="0 0 49 50" fill="none" xmlns="http://www.w3.org/2000/svg">
<path d="M48.6135 47.5287L36.2813 34.9448C39.798 30.818 41.6071 25.4592 41.3272 19.9979C41.0473 14.5366 38.7004 9.39947 34.781 5.66947C30.8617 1.93947 25.6762 -0.0920292 20.3176 0.00320311C14.959 0.0984355 9.84603 2.31296 6.05636 6.17996C2.2667 10.047 0.0964667 15.2643 0.00313905 20.7323C-0.0901886 26.2002 1.90068 31.4915 5.55608 35.4909C9.21148 39.4902 14.2458 41.885 19.5979 42.1706C24.95 42.4562 30.2017 40.6102 34.2459 37.0217L46.5781 49.6056C46.8511 49.8652 47.2122 50.0065 47.5853 49.9998C47.9584 49.9931 48.3143 49.8388 48.5782 49.5696C48.8421 49.3004 48.9932 48.9371 48.9998 48.5564C49.0064 48.1757 48.8679 47.8073 48.6135 47.5287ZM2.95213 21.1363C2.95213 17.5517 3.99382 14.0477 5.94548 11.0672C7.89713 8.08673 10.6711 5.76374 13.9166 4.39198C17.1621 3.02022 20.7333 2.66131 24.1787 3.36062C27.6241 4.05994 30.7889 5.78608 33.2728 8.32076C35.7568 10.8554 37.4484 14.0848 38.1338 17.6005C38.8191 21.1162 38.4674 24.7603 37.123 28.0721C35.7787 31.3838 33.5022 34.2143 30.5813 36.2058C27.6605 38.1973 24.2265 39.2603 20.7136 39.2603C16.0047 39.2544 11.4903 37.3431 8.16066 33.9454C4.83097 30.5478 2.95785 25.9413 2.95213 21.1363Z" fill="black"/>
</svg>
