<svg width="122" height="98" viewBox="0 0 122 98" fill="none" xmlns="http://www.w3.org/2000/svg">
<path d="M78.0312 41.4969L55.6564 28.5609C54.3427 27.8014 52.8532 27.4023 51.3373 27.4034C49.8215 27.4045 48.3326 27.8059 47.02 28.5673C45.7074 29.3286 44.6173 30.4232 43.8591 31.7412C43.1008 33.0592 42.7011 34.5542 42.7 36.0763V61.936C42.6817 65.0353 44.3287 67.9018 47.0066 69.433C48.3195 70.2031 49.8123 70.61 51.3329 70.6121C52.8535 70.6143 54.3474 70.2117 55.6625 69.4453L78.0312 56.5093C79.3452 55.7507 80.4368 54.6577 81.1959 53.3404C81.955 52.0231 82.3547 50.528 82.3547 49.0061C82.3547 47.4842 81.955 45.9892 81.1959 44.6719C80.4368 43.3546 79.3452 42.2615 78.0312 41.503M74.9812 51.1927L52.6186 64.1349C52.2319 64.3657 51.7905 64.4875 51.3406 64.4875C50.8908 64.4875 50.4494 64.3657 50.0627 64.1349C49.6749 63.913 49.3532 63.5909 49.1312 63.2021C48.9092 62.8133 48.7948 62.3719 48.8 61.9237V36.0763C48.797 35.6302 48.9124 35.1913 49.1343 34.8048C49.3562 34.4184 49.6767 34.0982 50.0627 33.8774C50.4464 33.6413 50.8876 33.5163 51.3376 33.5163C51.7876 33.5163 52.2288 33.6413 52.6125 33.8774L74.9812 46.8195C75.367 47.0383 75.6879 47.356 75.9113 47.7402C76.1346 48.1244 76.2523 48.5613 76.2523 49.0061C76.2523 49.451 76.1346 49.8879 75.9113 50.2721C75.6879 50.6563 75.367 50.974 74.9812 51.1927ZM103.7 0H18.3C13.448 0.00486457 8.79616 1.94236 5.3653 5.38728C1.93443 8.83221 0.00484471 13.5031 0 18.375V79.625C0.00484471 84.4969 1.93443 89.1678 5.3653 92.6127C8.79616 96.0576 13.448 97.9951 18.3 98H103.7C108.552 97.9951 113.204 96.0576 116.635 92.6127C120.066 89.1678 121.995 84.4969 122 79.625V18.375C121.995 13.5031 120.066 8.83221 116.635 5.38728C113.204 1.94236 108.552 0.00486457 103.7 0ZM115.9 79.625C115.895 82.8724 114.608 85.9854 112.321 88.2817C110.034 90.578 106.934 91.8701 103.7 91.875H18.3C15.0658 91.8701 11.9655 90.578 9.67864 88.2817C7.39175 85.9854 6.10484 82.8724 6.1 79.625V18.375C6.10484 15.1276 7.39175 12.0146 9.67864 9.71831C11.9655 7.42204 15.0658 6.12986 18.3 6.125H103.7C106.934 6.12986 110.034 7.42204 112.321 9.71831C114.608 12.0146 115.895 15.1276 115.9 18.375V79.625Z" fill="white"/>
</svg>
