<svg width="573" height="137" viewBox="0 0 573 137" fill="none" xmlns="http://www.w3.org/2000/svg">
<path d="M3.71689 47.0992V1.05249H30.8366V4.80202H7.73219V21.7735H29.1252V25.4573H7.73219V43.3497H31.5607V47.0992H3.71689Z" fill="#F4F4F4"/>
<path d="M43.1705 47.0992V13.0904H46.3959L46.725 19.6685C49.4238 14.8007 54.1632 12.2353 59.6266 12.2353C68.5129 12.2353 73.9764 18.4845 73.9764 28.2859V47.0992H70.1585V28.6148C70.1585 20.7868 65.9458 15.919 59.1658 15.919C51.991 15.919 46.9883 21.3788 46.9883 29.4699V47.0992H43.1705Z" fill="#F4F4F4"/>
<path d="M101.233 47.9544C91.0306 47.9544 83.8557 40.5211 83.8557 30.0619C83.8557 19.6028 91.0306 12.2353 101.233 12.2353C109.33 12.2353 115.978 17.0373 117.953 24.4048H114.069C111.831 19.0107 107.092 15.919 101.233 15.919C93.2028 15.919 87.6735 21.7077 87.6735 30.0619C87.6735 38.4819 93.2028 44.2706 101.233 44.2706C107.487 44.2706 112.358 40.7843 114.267 35.1929H118.282C115.978 43.1524 109.593 47.9544 101.233 47.9544Z" fill="#F4F4F4"/>
<path d="M143.607 47.9544C133.076 47.9544 125.703 40.5869 125.703 30.0619C125.703 19.6028 133.076 12.2353 143.607 12.2353C154.074 12.2353 161.446 19.6028 161.446 30.0619C161.446 40.5869 154.074 47.9544 143.607 47.9544ZM129.521 30.0619C129.521 38.4819 135.248 44.2706 143.607 44.2706C151.901 44.2706 157.628 38.4819 157.628 30.0619C157.628 21.7077 151.901 15.919 143.607 15.919C135.248 15.919 129.521 21.7077 129.521 30.0619Z" fill="#F4F4F4"/>
<path d="M172.055 47.0992V13.0904H175.281L175.61 19.6685C178.309 14.8007 183.048 12.2353 188.512 12.2353C197.398 12.2353 202.861 18.4845 202.861 28.2859V47.0992H199.044V28.6148C199.044 20.7868 194.831 15.919 188.051 15.919C180.876 15.919 175.873 21.3788 175.873 29.4699V47.0992H172.055Z" fill="#F4F4F4"/>
<path d="M228.433 47.0992C221.192 47.0992 217.309 43.0208 217.309 35.3244V16.5768H209.871V13.0904H214.215C216.782 13.0904 217.506 12.4326 217.77 9.93294L218.099 4.73623H221.127V13.0904H232.909V16.5768H221.127V35.1929C221.127 40.7843 223.43 43.4155 228.565 43.4155H233.37V47.0992H228.433Z" fill="#F4F4F4"/>
<path d="M243.601 47.0992V13.0904H246.826L247.221 20.721C249.525 15.5901 253.409 13.0904 259.728 13.0904H262.559V16.6426H259.596C252.29 16.6426 247.419 21.1157 247.419 31.4433V47.0992H243.601Z" fill="#F4F4F4"/>
<path d="M283.922 47.9544C273.588 47.9544 266.545 40.6527 266.545 30.0619C266.545 19.537 273.654 12.2353 283.988 12.2353C294.717 12.2353 301.629 20.129 301.366 31.6407H270.428C271.086 39.3371 276.352 44.3364 283.922 44.3364C289.451 44.3364 293.862 41.771 296.1 37.3636L300.378 37.4294C297.745 43.9417 291.558 47.9544 283.922 47.9544ZM270.428 28.2859H297.614C296.692 20.5895 291.426 15.8532 283.988 15.8532C276.418 15.8532 271.086 20.7868 270.428 28.2859Z" fill="#F4F4F4"/>
<path d="M338.538 47.6255C330.639 47.6255 325.702 43.7444 325.702 37.4952C325.702 31.4433 330.31 27.628 337.287 27.628H352.295V25.1941C352.295 19.537 348.148 15.7875 341.829 15.7875C336.695 15.7875 332.68 18.4187 331.297 22.4971H327.414C329.059 16.1821 334.523 12.2353 341.763 12.2353C350.255 12.2353 356.113 17.432 356.113 24.9968V47.0992H352.954L352.559 41.2447C349.597 45.3231 344.594 47.6255 338.538 47.6255ZM329.52 37.4294C329.52 41.5736 333.009 44.2049 338.67 44.2049C346.569 44.2049 352.361 39.2713 352.361 32.4301V30.9829H337.419C332.746 30.9829 329.52 33.5483 329.52 37.4294Z" fill="#F4F4F4"/>
<path d="M386.564 47.0992V13.0904H389.789L390.184 20.721C392.488 15.5901 396.372 13.0904 402.691 13.0904H405.521V16.6426H402.559C395.253 16.6426 390.382 21.1157 390.382 31.4433V47.0992H386.564Z" fill="#F4F4F4"/>
<path d="M427.412 47.9544C416.88 47.9544 409.507 40.5869 409.507 30.0619C409.507 19.6028 416.88 12.2353 427.412 12.2353C437.878 12.2353 445.25 19.6028 445.25 30.0619C445.25 40.5869 437.878 47.9544 427.412 47.9544ZM413.325 30.0619C413.325 38.4819 419.052 44.2706 427.412 44.2706C435.705 44.2706 441.432 38.4819 441.432 30.0619C441.432 21.7077 435.705 15.919 427.412 15.919C419.052 15.919 413.325 21.7077 413.325 30.0619Z" fill="#F4F4F4"/>
<path d="M468.59 47.0992C461.349 47.0992 457.466 43.0208 457.466 35.3244V16.5768H450.027V13.0904H454.372C456.939 13.0904 457.663 12.4326 457.926 9.93294L458.255 4.73623H461.283V13.0904H473.066V16.5768H461.283V35.1929C461.283 40.7843 463.587 43.4155 468.722 43.4155H473.527V47.0992H468.59Z" fill="#F4F4F4"/>
<path d="M483.758 47.0992V13.0904H487.576V47.0992H483.758ZM482.178 3.42061C482.178 1.51296 483.56 0 485.667 0C487.773 0 489.155 1.51296 489.155 3.42061C489.155 5.39405 487.773 6.90701 485.667 6.90701C483.56 6.90701 482.178 5.39405 482.178 3.42061Z" fill="#F4F4F4"/>
<path d="M501.114 47.0992V13.0904H504.339L504.668 19.6685C507.367 14.8007 512.107 12.2353 517.57 12.2353C526.456 12.2353 531.92 18.4845 531.92 28.2859V47.0992H528.102V28.6148C528.102 20.7868 523.889 15.919 517.109 15.919C509.934 15.919 504.932 21.3788 504.932 29.4699V47.0992H501.114Z" fill="#F4F4F4"/>
<path d="M555.425 47.6255C547.526 47.6255 542.589 43.7444 542.589 37.4952C542.589 31.4433 547.197 27.628 554.174 27.628H569.182V25.1941C569.182 19.537 565.035 15.7875 558.716 15.7875C553.582 15.7875 549.566 18.4187 548.184 22.4971H544.301C545.946 16.1821 551.41 12.2353 558.65 12.2353C567.142 12.2353 573 17.432 573 24.9968V47.0992H569.84L569.445 41.2447C566.483 45.3231 561.481 47.6255 555.425 47.6255ZM546.407 37.4294C546.407 41.5736 549.896 44.2049 555.556 44.2049C563.455 44.2049 569.248 39.2713 569.248 32.4301V30.9829H554.306C549.632 30.9829 546.407 33.5483 546.407 37.4294Z" fill="#F4F4F4"/>
<path d="M11.5149 85.1119C10.2043 85.1119 9.05746 84.6909 8.07448 83.8489C7.13831 82.9601 6.67022 81.7907 6.67022 80.3406C6.67022 78.7034 7.23192 77.3702 8.35533 76.3411C9.52554 75.2652 10.8362 74.7273 12.2873 74.7273C13.6915 74.7273 14.8383 75.1717 15.7277 76.0604C16.617 76.9492 17.0617 78.0953 17.0617 79.4986C17.0617 81.089 16.5 82.4222 15.3766 83.4981C14.2532 84.574 12.966 85.1119 11.5149 85.1119ZM4.98511 124.896C3.53405 124.896 2.34043 124.522 1.40426 123.774C0.468086 123.025 0 121.926 0 120.476C0 119.634 0.0936172 118.628 0.280851 117.459C0.468086 116.289 0.678724 115.12 0.912767 113.95L4.21277 98.1629C4.63405 96.245 3.95532 94.8884 2.1766 94.0932L1.05319 93.5319L1.12341 92.76L14.3234 88.9711L15.0256 89.6026L9.54895 115.003C9.36171 115.845 9.22129 116.57 9.12767 117.178C9.03405 117.739 8.98725 118.301 8.98725 118.862C8.98725 119.891 9.45533 120.406 10.3915 120.406C11.0936 120.406 11.7958 120.195 12.4979 119.774C13.2 119.306 14.0894 118.558 15.166 117.529L15.7979 118.16C14.6277 119.891 13.1298 121.458 11.3043 122.861C9.52554 124.218 7.41916 124.896 4.98511 124.896Z" fill="#F4F4F4"/>
<path d="M26.6919 124.896C24.8195 124.896 23.1578 124.171 21.7067 122.721C20.3025 121.271 19.6004 118.745 19.6004 115.143C19.6004 112.711 20.0684 110.255 21.0046 107.776C21.9408 105.296 23.1812 102.958 24.7259 100.759C26.3174 98.5137 28.0961 96.5023 30.0621 94.7247C32.0748 92.9472 34.1578 91.5672 36.311 90.5849C38.4642 89.5558 40.5706 89.0412 42.6302 89.0412C43.5663 89.0412 44.4557 89.1816 45.2983 89.4622L46.3515 84.1997C46.7727 82.0947 46.0004 80.668 44.0344 79.9196L42.4898 79.2881L42.6302 78.5864L56.2515 74.6571L56.743 75.1483L48.1068 115.985C47.9663 116.734 47.8493 117.365 47.7557 117.88C47.7089 118.347 47.6855 118.815 47.6855 119.283C47.6855 120.265 48.0834 120.756 48.8791 120.756C49.4408 120.756 50.1898 120.476 51.1259 119.914C52.1089 119.306 53.0919 118.418 54.0749 117.248L54.8472 117.95C53.7238 119.821 52.2025 121.458 50.2834 122.861C48.3642 124.218 46.328 124.896 44.1749 124.896C42.6302 124.896 41.4132 124.405 40.5238 123.423C39.6344 122.394 39.1897 121.084 39.1897 119.493C39.1897 118.698 39.26 117.763 39.4004 116.687C37.4812 119.119 35.3748 121.107 33.0812 122.651C30.8344 124.148 28.7046 124.896 26.6919 124.896ZM28.1663 112.898C28.1663 115.237 28.5408 116.921 29.2897 117.95C30.0387 118.979 31.0216 119.493 32.2387 119.493C34.3919 119.493 36.8727 117.856 39.6812 114.582C39.728 114.348 39.7749 114.091 39.8217 113.81L44.1046 93.1109C42.9344 92.035 41.5536 91.4971 39.9621 91.4971C38.7919 91.4971 37.6919 91.7777 36.6621 92.339C35.6791 92.8536 34.7429 93.602 33.8536 94.5844C32.777 95.8006 31.794 97.4378 30.9046 99.496C30.0621 101.507 29.3833 103.706 28.8685 106.092C28.4004 108.431 28.1663 110.699 28.1663 112.898Z" fill="#F4F4F4"/>
<path d="M70.1448 124.896C66.6342 124.896 63.7789 123.75 61.5789 121.458C59.3789 119.166 58.2789 115.915 58.2789 111.705C58.2789 108.711 58.7938 105.858 59.8235 103.145C60.8533 100.432 62.281 98.0225 64.1065 95.9175C65.9789 93.7658 68.1321 92.0818 70.5661 90.8656C73.0002 89.6493 75.6448 89.0412 78.5002 89.0412C81.4491 89.0412 83.6959 89.7195 85.2406 91.0761C86.8321 92.3858 87.6278 94.14 87.6278 96.3385C87.6278 98.1629 86.7619 99.9638 85.03 101.741C83.3448 103.519 80.9576 105.133 77.8682 106.583C74.7789 107.986 71.1512 109.062 66.9853 109.81C67.0321 113.038 67.7342 115.4 69.0916 116.897C70.4491 118.394 72.3214 119.143 74.7087 119.143C76.7214 119.143 78.5704 118.605 80.2555 117.529C81.9406 116.406 83.3683 115.096 84.5385 113.599L85.2406 114.091C84.3044 115.915 83.0874 117.646 81.5895 119.283C80.1385 120.92 78.4534 122.277 76.5342 123.353C74.6151 124.382 72.4853 124.896 70.1448 124.896ZM78.0087 90.9357C76.9321 90.9357 75.7619 91.4035 74.498 92.339C73.281 93.2746 72.1108 94.561 70.9874 96.1982C69.9108 97.7886 68.998 99.6364 68.2491 101.741C67.547 103.8 67.1257 105.998 66.9853 108.337C72.1342 106.934 75.7853 105.086 77.9385 102.794C80.1385 100.502 81.2385 97.9056 81.2385 95.0054C81.2385 93.602 80.9342 92.5729 80.3257 91.9181C79.7172 91.2632 78.9448 90.9357 78.0087 90.9357Z" fill="#F4F4F4"/>
<path d="M97.0534 124.896C95.7427 124.896 94.5023 124.592 93.3321 123.984C92.1619 123.376 91.2023 122.37 90.4534 120.967C89.7512 119.564 89.4002 117.716 89.4002 115.424C89.4002 112.945 89.8916 110.465 90.8746 107.986C91.8576 105.46 93.1683 103.075 94.8066 100.829C96.4449 98.5371 98.2704 96.5256 100.283 94.7949C102.296 93.0173 104.379 91.614 106.532 90.5849C108.685 89.5558 110.721 89.0412 112.641 89.0412C113.577 89.0412 114.443 89.2283 115.238 89.6026C116.081 89.93 116.877 90.3978 117.626 91.0059L123.313 88.8307L123.875 89.1816L117.766 116.055C117.438 117.365 117.275 118.441 117.275 119.283C117.275 120.265 117.719 120.756 118.609 120.756C119.264 120.756 120.013 120.452 120.856 119.844C121.745 119.236 122.751 118.418 123.875 117.388L124.436 117.95C123.734 119.072 122.845 120.172 121.768 121.248C120.738 122.277 119.568 123.142 118.258 123.844C116.994 124.545 115.636 124.896 114.185 124.896C112.594 124.896 111.307 124.429 110.324 123.493C109.341 122.511 108.849 121.014 108.849 119.002C108.849 118.347 108.873 117.716 108.919 117.108C107.047 119.213 105.058 121.037 102.951 122.581C100.892 124.124 98.9257 124.896 97.0534 124.896ZM97.6853 112.266C97.6853 114.746 98.0832 116.546 98.8789 117.669C99.7215 118.745 100.821 119.283 102.179 119.283C103.302 119.283 104.426 118.932 105.549 118.23C106.673 117.529 107.89 116.523 109.2 115.213C109.294 114.652 109.411 114.067 109.551 113.459L113.975 93.2512C113.366 92.5028 112.641 91.9882 111.798 91.7076C110.956 91.4269 110.207 91.2866 109.551 91.2866C107.538 91.2866 105.432 92.4794 103.232 94.865C101.5 96.7829 100.143 99.3089 99.1597 102.443C98.1768 105.577 97.6853 108.852 97.6853 112.266Z" fill="#F4F4F4"/>
<path d="M133.47 124.896C131.926 124.896 130.685 124.499 129.749 123.703C128.86 122.908 128.415 121.762 128.415 120.265C128.415 119.423 128.509 118.418 128.696 117.248C128.883 116.032 129.164 114.488 129.538 112.617L133.54 93.2512C133.915 91.4737 134.219 89.8598 134.453 88.4097C134.734 86.9596 135.038 85.3224 135.366 83.4981C135.694 81.627 134.945 80.364 133.119 79.7091L131.926 79.2881L132.066 78.5864L145.828 74.6571L146.249 75.1483L137.613 115.845C137.472 116.546 137.355 117.178 137.262 117.739C137.168 118.254 137.121 118.698 137.121 119.072C137.121 120.102 137.566 120.616 138.455 120.616C139.626 120.616 141.334 119.564 143.581 117.459L144.283 118.02C143.113 119.751 141.638 121.341 139.86 122.791C138.081 124.195 135.951 124.896 133.47 124.896Z" fill="#F4F4F4"/>
<path d="M189.216 124.699C182.963 124.699 177.894 121.87 174.866 117.397V137H171.048V89.835H174.274L174.669 96.6104C177.631 91.8742 182.831 88.9798 189.216 88.9798C199.55 88.9798 206.659 96.4789 206.659 106.806C206.659 117.134 199.55 124.699 189.216 124.699ZM174.735 106.806C174.735 115.161 180.461 121.015 188.821 121.015C197.181 121.015 202.842 115.161 202.842 106.806C202.842 98.5181 197.181 92.6636 188.821 92.6636C180.461 92.6636 174.735 98.5181 174.735 106.806Z" fill="#F4F4F4"/>
<path d="M227.481 124.37C219.582 124.37 214.645 120.489 214.645 114.24C214.645 108.188 219.253 104.373 226.23 104.373H241.238V101.939C241.238 96.2815 237.091 92.532 230.772 92.532C225.637 92.532 221.622 95.1633 220.24 99.2417H216.356C218.002 92.9267 223.465 88.9798 230.706 88.9798C239.197 88.9798 245.056 94.1765 245.056 101.741V123.844H241.896L241.501 117.989C238.539 122.068 233.536 124.37 227.481 124.37ZM218.463 114.174C218.463 118.318 221.951 120.949 227.612 120.949C235.511 120.949 241.304 116.016 241.304 109.175V107.727H226.362C221.688 107.727 218.463 110.293 218.463 114.174Z" fill="#F4F4F4"/>
<path d="M257.893 123.844V89.835H261.118L261.513 97.4656C263.817 92.3347 267.701 89.835 274.02 89.835H276.851V93.3872H273.888C266.582 93.3872 261.711 97.8603 261.711 108.188V123.844H257.893Z" fill="#F4F4F4"/>
<path d="M294.334 124.37C286.435 124.37 281.498 120.489 281.498 114.24C281.498 108.188 286.106 104.373 293.083 104.373H308.091V101.939C308.091 96.2815 303.944 92.532 297.625 92.532C292.491 92.532 288.475 95.1633 287.093 99.2417H283.209C284.855 92.9267 290.318 88.9798 297.559 88.9798C306.05 88.9798 311.909 94.1765 311.909 101.741V123.844H308.749L308.354 117.989C305.392 122.068 300.39 124.37 294.334 124.37ZM285.316 114.174C285.316 118.318 288.804 120.949 294.465 120.949C302.364 120.949 308.157 116.016 308.157 109.175V107.727H293.215C288.541 107.727 285.316 110.293 285.316 114.174Z" fill="#F4F4F4"/>
<path d="M350.559 123.844L335.353 89.835H339.5L345.424 102.991L352.468 118.844L359.445 102.991L365.435 89.835H369.516L354.311 123.844H350.559Z" fill="#F4F4F4"/>
<path d="M391.307 124.699C380.775 124.699 373.402 117.331 373.402 106.806C373.402 96.3473 380.775 88.9798 391.307 88.9798C401.773 88.9798 409.145 96.3473 409.145 106.806C409.145 117.331 401.773 124.699 391.307 124.699ZM377.22 106.806C377.22 115.226 382.947 121.015 391.307 121.015C399.6 121.015 405.327 115.226 405.327 106.806C405.327 98.4523 399.6 92.6636 391.307 92.6636C382.947 92.6636 377.22 98.4523 377.22 106.806Z" fill="#F4F4F4"/>
<path d="M434.17 124.699C423.967 124.699 416.793 117.266 416.793 106.806C416.793 96.3473 423.967 88.9798 434.17 88.9798C442.267 88.9798 448.915 93.7818 450.89 101.149H447.006C444.768 95.7553 440.029 92.6636 434.17 92.6636C426.14 92.6636 420.61 98.4523 420.61 106.806C420.61 115.226 426.14 121.015 434.17 121.015C440.424 121.015 445.295 117.529 447.203 111.937H451.219C448.915 119.897 442.53 124.699 434.17 124.699Z" fill="#F4F4F4"/>
<path d="M476.018 124.699C465.683 124.699 458.64 117.397 458.64 106.806C458.64 96.2815 465.749 88.9798 476.083 88.9798C486.813 88.9798 493.724 96.8736 493.461 108.385H462.524C463.182 116.082 468.448 121.081 476.018 121.081C481.547 121.081 485.957 118.516 488.195 114.108L492.474 114.174C489.841 120.686 483.653 124.699 476.018 124.699ZM462.524 105.03H489.709C488.788 97.334 483.522 92.5978 476.083 92.5978C468.514 92.5978 463.182 97.5314 462.524 105.03ZM466.407 84.1778L474.569 74.2449H477.597L485.76 84.1778H481.613L476.083 77.2708L470.554 84.1778H466.407Z" fill="#F4F4F4"/>
</svg>
